<?xml version="1.0" encoding="utf-8"?>
<!-- Generator: Adobe Illustrator 16.0.0, SVG Export Plug-In . SVG Version: 6.00 Build 0)  -->
<!DOCTYPE svg PUBLIC "-//W3C//DTD SVG 1.1//EN" "http://www.w3.org/Graphics/SVG/1.1/DTD/svg11.dtd">
<svg version="1.1" id="Layer_1" xmlns="http://www.w3.org/2000/svg" xmlns:xlink="http://www.w3.org/1999/xlink" x="0px" y="0px"
	 width="48px" height="48px" viewBox="0 0 48 48" enable-background="new 0 0 48 48" xml:space="preserve">
<g>
	<defs>
		<rect id="SVGID_1_" width="48" height="48"/>
	</defs>
	<clipPath id="SVGID_2_">
		<use xlink:href="#SVGID_1_"  overflow="visible"/>
	</clipPath>
	<path clip-path="url(#SVGID_2_)" d="M24,4c-7.72,0-14,6.28-14,14c0,10.5,14,26,14,26s14-15.5,14-26C38,10.28,31.721,4,24,4z M24,8
		c2.2,0,4,1.8,4,4c0,2.22-1.8,4-4,4s-4-1.78-4-4C20,9.8,21.8,8,24,8z M24,28c-3.34,0-6.28-1.7-8-4.3c0.04-2.64,5.34-4.1,8-4.1
		s7.96,1.46,8,4.1C30.279,26.3,27.34,28,24,28z"/>
</g>
<ellipse fill="#FFFFFF" stroke="#000000" stroke-miterlimit="10" cx="24" cy="18.125" rx="9.594" ry="11"/>
<g>
	<defs>
		<rect id="SVGID_3_" width="48" height="48"/>
	</defs>
	<clipPath id="SVGID_4_">
		<use xlink:href="#SVGID_3_"  overflow="visible"/>
	</clipPath>
	<path clip-path="url(#SVGID_4_)" d="M24,4c-7.72,0-14,6.28-14,14c0,10.5,14,26,14,26s14-15.5,14-26C38,10.28,31.721,4,24,4z M24,8
		c2.2,0,4,1.8,4,4c0,2.22-1.8,4-4,4s-4-1.78-4-4C20,9.8,21.8,8,24,8z M24,28c-3.34,0-6.28-1.7-8-4.3c0.04-2.64,5.34-4.1,8-4.1
		s7.96,1.46,8,4.1C30.279,26.3,27.34,28,24,28z"/>
</g>
</svg>
