<?xml version="1.0" encoding="utf-8"?>
<!-- Generator: Adobe Illustrator 16.0.0, SVG Export Plug-In . SVG Version: 6.00 Build 0)  -->
<!DOCTYPE svg PUBLIC "-//W3C//DTD SVG 1.1//EN" "http://www.w3.org/Graphics/SVG/1.1/DTD/svg11.dtd">
<svg version="1.1" id="Layer_1" xmlns="http://www.w3.org/2000/svg" xmlns:xlink="http://www.w3.org/1999/xlink" x="0px" y="0px"
	 width="48px" height="48px" viewBox="0 0 48 48" enable-background="new 0 0 48 48" xml:space="preserve">
<g>
	<defs>
		<rect id="SVGID_1_" width="48" height="48"/>
	</defs>
	<clipPath id="SVGID_2_">
		<use xlink:href="#SVGID_1_"  overflow="visible"/>
	</clipPath>
	<path clip-path="url(#SVGID_2_)" d="M24,4c-7.72,0-14,6.28-14,14c0,10.5,14,26,14,26s14-15.5,14-26C38,10.28,31.721,4,24,4z M24,8
		c2.2,0,4,1.8,4,4c0,2.22-1.8,4-4,4s-4-1.78-4-4C20,9.8,21.8,8,24,8z M24,28c-3.34,0-6.28-1.7-8-4.3c0.04-2.64,5.34-4.1,8-4.1
		s7.96,1.46,8,4.1C30.279,26.3,27.34,28,24,28z"/>
</g>
<path fill="none" d="M26.063,29.063H48V51H26.063V29.063z"/>
<ellipse cx="23.706" cy="18.575" rx="9.831" ry="12.388"/>
<path fill="none" d="M13.957,8.375h20.085V28.46H13.957V8.375z"/>
<path fill="none" d="M14.813,9.585h18.875V28.46H14.813V9.585z"/>
<path fill="#FFFFFF" d="M29.756,14.304h-1.572c0-2.171-1.762-3.933-3.933-3.933s-3.933,1.762-3.933,3.933h-1.572
	c-0.865,0-1.565,0.708-1.565,1.573l-0.008,9.438c0,0.865,0.708,1.572,1.573,1.572h11.01c0.865,0,1.573-0.707,1.573-1.572v-9.438
	C31.329,15.012,30.621,14.304,29.756,14.304z M24.251,11.944c1.306,0,2.359,1.054,2.359,2.359h-4.719
	C21.892,12.998,22.945,11.944,24.251,11.944z M24.251,19.809c-2.171,0-3.933-1.762-3.933-3.932h1.573
	c0,1.305,1.054,2.359,2.359,2.359s2.359-1.055,2.359-2.359h1.573C28.184,18.047,26.422,19.809,24.251,19.809z"/>
</svg>
